<?xml version="1.0" encoding="UTF-8" standalone="no"?>
<svg
   id="svg8"
   version="1.1"
   viewBox="0 0 13.229167 13.229167"
   height="13.229167mm"
   width="13.229167mm"
   sodipodi:docname="deck.svg"
   inkscape:version="1.1.1 (c3084ef, 2021-09-22)"
   xmlns:inkscape="http://www.inkscape.org/namespaces/inkscape"
   xmlns:sodipodi="http://sodipodi.sourceforge.net/DTD/sodipodi-0.dtd"
   xmlns="http://www.w3.org/2000/svg"
   xmlns:svg="http://www.w3.org/2000/svg"
   xmlns:rdf="http://www.w3.org/1999/02/22-rdf-syntax-ns#"
   xmlns:cc="http://creativecommons.org/ns#"
   xmlns:dc="http://purl.org/dc/elements/1.1/">
  <sodipodi:namedview
     id="namedview320977"
     pagecolor="#ffffff"
     bordercolor="#666666"
     borderopacity="1.0"
     inkscape:pageshadow="2"
     inkscape:pageopacity="0.0"
     inkscape:pagecheckerboard="0"
     inkscape:document-units="mm"
     showgrid="false"
     inkscape:zoom="8"
     inkscape:cx="-0.5625"
     inkscape:cy="10.5625"
     inkscape:window-width="1978"
     inkscape:window-height="1127"
     inkscape:window-x="1221"
     inkscape:window-y="70"
     inkscape:window-maximized="0"
     inkscape:current-layer="svg8" />
  <defs
     id="defs2">
    <inkscape:path-effect
       effect="fillet_chamfer"
       id="path-effect1618"
       is_visible="true"
       lpeversion="1"
       satellites_param="F,0,0,1,0,1.5875,0,1 @ F,0,0,1,0,1.5875,0,1 @ F,0,0,1,0,1.5875,0,1 @ F,0,0,1,0,1.5875,0,1"
       unit="px"
       method="auto"
       mode="F"
       radius="6"
       chamfer_steps="1"
       flexible="false"
       use_knot_distance="true"
       apply_no_radius="true"
       apply_with_radius="true"
       only_selected="false"
       hide_knots="false" />
    <style
       id="style1356">.cls-1{fill:#ed1b24;fill-rule:evenodd;}</style>
  </defs>
  <metadata
     id="metadata5">
    <rdf:RDF>
      <cc:Work
         rdf:about="">
        <dc:format>image/svg+xml</dc:format>
        <dc:type
           rdf:resource="http://purl.org/dc/dcmitype/StillImage" />
      </cc:Work>
    </rdf:RDF>
  </metadata>
  <g
     id="g2806"
     transform="translate(0.31212584,0.72085784)">
    <path
       id="path2364"
       style="fill:#000f00;fill-opacity:1;stroke-width:0.254592;stroke-linecap:round"
       d="M 3.8436931,1.8520833 A 0.40416419,0.40416419 0 0 0 3.4395833,2.256193 V 2.38125 H 8.2320555 A 0.40416419,0.40416419 0 0 1 8.6361653,2.7853598 V 9.9353107 H 8.7612222 A 0.40416419,0.40416419 0 0 0 9.165332,9.5312012 V 2.256193 A 0.40416419,0.40416419 0 0 0 8.7612222,1.8520833 Z" />
    <path
       id="path2464"
       d="m 3.0499973,2.6458333 h 4.9173311 a 0.40416418,0.40416418 0 0 1 0.404164,0.4041642 v 7.2749555 a 0.40416418,0.40416418 0 0 1 -0.404164,0.404165 H 3.0499973 A 0.40416418,0.40416418 0 0 1 2.6458333,10.324953 V 3.0499975 a 0.40416418,0.40416418 0 0 1 0.404164,-0.4041642 z"
       style="fill:#000000;fill-opacity:1;stroke-width:0.254592;stroke-linecap:round" />
    <path
       id="path2729"
       style="fill:#001300;fill-opacity:1;stroke-width:0.254592;stroke-linecap:round"
       d="M 4.6374431,1.0583333 A 0.40416419,0.40416419 0 0 0 4.2333333,1.462443 V 1.5875 H 9.0258055 A 0.40416419,0.40416419 0 0 1 9.4299153,1.9916098 V 9.1415607 H 9.5549722 A 0.40416419,0.40416419 0 0 0 9.959082,8.7374512 V 1.462443 A 0.40416419,0.40416419 0 0 0 9.5549722,1.0583333 Z" />
  </g>
</svg>
