<?xml version="1.0" encoding="UTF-8" standalone="no"?>
<svg
   id="svg8"
   version="1.1"
   viewBox="0 0 13.229167 13.229167"
   height="13.229167mm"
   width="13.229167mm"
   sodipodi:docname="stone_icon.svg"
   inkscape:version="1.1.1 (c3084ef, 2021-09-22)"
   xmlns:inkscape="http://www.inkscape.org/namespaces/inkscape"
   xmlns:sodipodi="http://sodipodi.sourceforge.net/DTD/sodipodi-0.dtd"
   xmlns="http://www.w3.org/2000/svg"
   xmlns:svg="http://www.w3.org/2000/svg"
   xmlns:rdf="http://www.w3.org/1999/02/22-rdf-syntax-ns#"
   xmlns:cc="http://creativecommons.org/ns#"
   xmlns:dc="http://purl.org/dc/elements/1.1/">
  <sodipodi:namedview
     id="namedview320977"
     pagecolor="#ffffff"
     bordercolor="#666666"
     borderopacity="1.0"
     inkscape:pageshadow="2"
     inkscape:pageopacity="0.0"
     inkscape:pagecheckerboard="0"
     inkscape:document-units="mm"
     showgrid="false"
     inkscape:zoom="6.2799999"
     inkscape:cx="114.17198"
     inkscape:cy="41.878982"
     inkscape:window-width="1699"
     inkscape:window-height="866"
     inkscape:window-x="1183"
     inkscape:window-y="193"
     inkscape:window-maximized="0"
     inkscape:current-layer="svg8" />
  <defs
     id="defs2" />
  <metadata
     id="metadata5">
    <rdf:RDF>
      <cc:Work
         rdf:about="">
        <dc:format>image/svg+xml</dc:format>
        <dc:type
           rdf:resource="http://purl.org/dc/dcmitype/StillImage" />
      </cc:Work>
    </rdf:RDF>
  </metadata>
  <g
     transform="translate(54.239582,-142.21875)"
     id="layer1">
    <g
       id="g4778">
      <path
         id="path4782"
         d="m -50.432771,152.5277 c -0.644674,-0.31911 -1.284878,-0.90417 -1.571214,-1.43586 -0.424908,-0.78901 -0.445069,-1.06264 -0.167042,-2.26712 0.173905,-0.7534 0.561309,-1.71405 0.860899,-2.13479 0.723891,-1.01661 2.599834,-2.08993 3.65277,-2.08993 2.911881,0 5.684059,4.12759 4.417348,6.57714 -0.942834,1.82324 -4.781677,2.54405 -7.192761,1.35056 z"
         style="fill:#b3a189;stroke-width:0.264583" />
      <path
         id="path4780"
         d="m -50.009177,152.70218 c -1.139428,-0.42372 -1.721843,-1.10336 -2.09576,-1.80203 -0.443019,-0.82779 -0.322483,-1.3262 0.682452,-0.73327 1.267961,0.74812 5.653348,0.89774 7.141624,0.18752 0.550906,-0.26292 1.162977,-0.29564 1.257169,-0.20144 0.254262,0.25426 -0.505688,1.86428 -1.641002,2.31996 -1.076514,0.52879 -3.412732,0.94755 -5.344483,0.22926 z"
         style="fill:#9d8b75;stroke-width:0.264583"
         sodipodi:nodetypes="cssccccc" />
    </g>
  </g>
</svg>
